HIERARCHY
ROOT hip
{
  OFFSET 0 0 0
  CHANNELS 6 Xposition Yposition Zposition Zrotation Yrotation Xrotation
  JOINT abdomen
  {
    OFFSET 0 20.6881 -0.73152
    CHANNELS 3 Zrotation Xrotation Yrotation
    JOINT chest
    {
      OFFSET 0 11.7043 -0.48768
      CHANNELS 3 Zrotation Xrotation Yrotation
      JOINT neck
      {
        OFFSET 0 22.1894 -2.19456
        CHANNELS 3 Zrotation Xrotation Yrotation
        JOINT head
        {
          OFFSET -0.24384 7.07133 1.2192
          CHANNELS 3 Zrotation Xrotation Yrotation
          JOINT leftEye
          {
            OFFSET 4.14528 8.04674 8.04672
            CHANNELS 3 Zrotation Xrotation Yrotation
            End Site
            {
              OFFSET 1 0 0
            }
          }
          JOINT rightEye
          {
            OFFSET -3.6576 8.04674 8.04672
            CHANNELS 3 Zrotation Xrotation Yrotation
            End Site
            {
              OFFSET 1 0 0
            }
          }
        }
      }
      JOINT rCollar
      {
        OFFSET -2.68224 19.2634 -4.8768
        CHANNELS 3 Zrotation Xrotation Yrotation
        JOINT rShldr
        {
          OFFSET -8.77824 -1.95073 1.46304
          CHANNELS 3 Zrotation Xrotation Yrotation
          JOINT rForeArm
          {
            OFFSET -28.1742 -1.7115 0.48768
            CHANNELS 3 Zrotation Xrotation Yrotation
            JOINT rHand
            {
              OFFSET -22.5879 0.773209 7.07136
              CHANNELS 3 Zrotation Xrotation Yrotation
              JOINT rThumb1
              {
                OFFSET -1.2192 -0.487915 3.41376
                CHANNELS 3 Zrotation Xrotation Yrotation
                JOINT rThumb2
                {
                  OFFSET -3.37035 -0.52449 3.41376
                  CHANNELS 3 Zrotation Xrotation Yrotation
                  End Site
                  {
                    OFFSET -1.78271 -1.18214 1.43049
                  }
                }
              }
              JOINT rIndex1
              {
                OFFSET -7.75947 0.938293 5.60832
                CHANNELS 3 Zrotation Xrotation Yrotation
                JOINT rIndex2
                {
                  OFFSET -2.54057 -0.884171 1.56538
                  CHANNELS 3 Zrotation Xrotation Yrotation
                  End Site
                  {
                    OFFSET -1.62519 -0.234802 1.16502
                  }
                }
              }
              JOINT rMid1
              {
                OFFSET -8.24714 1.18213 3.41376
                CHANNELS 3 Zrotation Xrotation Yrotation
                JOINT rMid2
                {
                  OFFSET -3.10165 -0.590103 1.0647
                  CHANNELS 3 Zrotation Xrotation Yrotation
                  End Site
                  {
                    OFFSET -2.48547 -0.328903 0.83742
                  }
                }
              }
              JOINT rRing1
              {
                OFFSET -8.82822 0.546677 1.51678
                CHANNELS 3 Zrotation Xrotation Yrotation
                JOINT rRing2
                {
                  OFFSET -2.60934 -0.819778 -0.0198488
                  CHANNELS 3 Zrotation Xrotation Yrotation
                  End Site
                  {
                    OFFSET -2.33842 -0.294052 0.168128
                  }
                }
              }
              JOINT rPinky1
              {
                OFFSET -8.27202 -0.0477905 -0.4584
                CHANNELS 3 Zrotation Xrotation Yrotation
                JOINT rPinky2
                {
                  OFFSET -1.82734 -0.647385 -0.700984
                  CHANNELS 3 Zrotation Xrotation Yrotation
                  End Site
                  {
                    OFFSET -1.69225 -0.51767 -0.607171
                  }
                }
              }
            }
          }
        }
      }
      JOINT lCollar
      {
        OFFSET 2.68224 19.2634 -4.8768
        CHANNELS 3 Zrotation Xrotation Yrotation
        JOINT lShldr
        {
          OFFSET 8.77824 -1.95073 1.46304
          CHANNELS 3 Zrotation Xrotation Yrotation
          JOINT lForeArm
          {
            OFFSET 28.1742 -1.7115 0.48768
            CHANNELS 3 Zrotation Xrotation Yrotation
            JOINT lHand
            {
              OFFSET 22.5879 0.773209 7.07136
              CHANNELS 3 Zrotation Xrotation Yrotation
              JOINT lThumb1
              {
                OFFSET 1.2192 -0.487915 3.41376
                CHANNELS 3 Zrotation Xrotation Yrotation
                JOINT lThumb2
                {
                  OFFSET 3.37035 -0.52449 3.41376
                  CHANNELS 3 Zrotation Xrotation Yrotation
                  End Site
                  {
                    OFFSET 1.78271 -1.18214 1.43049
                  }
                }
              }
              JOINT lIndex1
              {
                OFFSET 7.75947 0.938293 5.60832
                CHANNELS 3 Zrotation Xrotation Yrotation
                JOINT lIndex2
                {
                  OFFSET 2.54057 -0.884171 1.56538
                  CHANNELS 3 Zrotation Xrotation Yrotation
                  End Site
                  {
                    OFFSET 1.62519 -0.234802 1.16502
                  }
                }
              }
              JOINT lMid1
              {
                OFFSET 8.24714 1.18213 3.41376
                CHANNELS 3 Zrotation Xrotation Yrotation
                JOINT lMid2
                {
                  OFFSET 3.10165 -0.590103 1.0647
                  CHANNELS 3 Zrotation Xrotation Yrotation
                  End Site
                  {
                    OFFSET 2.48547 -0.328903 0.83742
                  }
                }
              }
              JOINT lRing1
              {
                OFFSET 8.82822 0.546677 1.51678
                CHANNELS 3 Zrotation Xrotation Yrotation
                JOINT lRing2
                {
                  OFFSET 2.60934 -0.819778 -0.0198488
                  CHANNELS 3 Zrotation Xrotation Yrotation
                  End Site
                  {
                    OFFSET 2.33842 -0.294052 0.168128
                  }
                }
              }
              JOINT lPinky1
              {
                OFFSET 8.27202 -0.0477905 -0.4584
                CHANNELS 3 Zrotation Xrotation Yrotation
                JOINT lPinky2
                {
                  OFFSET 1.82734 -0.647385 -0.700984
                  CHANNELS 3 Zrotation Xrotation Yrotation
                  End Site
                  {
                    OFFSET 1.69225 -0.51767 -0.607171
                  }
                }
              }
            }
          }
        }
      }
    }
  }
  JOINT rButtock
  {
    OFFSET -8.77824 4.35084 1.2192
    CHANNELS 3 Zrotation Xrotation Yrotation
    JOINT rThigh
    {
      OFFSET 0 -1.70687 -2.19456
      CHANNELS 3 Zrotation Xrotation Yrotation
      JOINT rShin
      {
        OFFSET 0 -36.8199 0.73152
        CHANNELS 3 Zrotation Xrotation Yrotation
        JOINT rFoot
        {
          OFFSET 0.73152 -45.1104 -5.12064
          CHANNELS 3 Zrotation Xrotation Yrotation
          End Site
          {
            OFFSET -1.1221 -3.69964 12.103
          }
        }
      }
    }
  }
  JOINT lButtock
  {
    OFFSET 8.77824 4.35084 1.2192
    CHANNELS 3 Zrotation Xrotation Yrotation
    JOINT lThigh
    {
      OFFSET 0 -1.70687 -2.19456
      CHANNELS 3 Zrotation Xrotation Yrotation
      JOINT lShin
      {
        OFFSET 0 -36.8199 0.73152
        CHANNELS 3 Zrotation Xrotation Yrotation
        JOINT lFoot
        {
          OFFSET -0.73152 -45.1104 -5.12064
          CHANNELS 3 Zrotation Xrotation Yrotation
          End Site
          {
            OFFSET 1.1221 -3.69964 12.103
          }
        }
      }
    }
  }
}
MOTION
Frames:	7
Frame Time:	0.00833333
0.588127 112.866 -6.58168 -0.2876 2.3471 11.0253 -3.09498 10.4294 -1.71683 3.30716 1.80847 -0.552156 -2.69268 4.20265 0.14165 2.33216 2.84508 0.764069 -0.0 0.0 0.0 -0.0 0.0 0.0 -2.12486e-14 -2.80859e-13 3.19527e-14 76.2159 16.5072 -1.35461 -13.3613 -6.45047 24.2778 -2.07649 37.3023 6.14661 -3.39412e-09 2.95796e-10 2.37191e-09 -5.78799e-09 4.6958e-10 4.19582e-09 -3.39411e-09 2.95799e-10 2.37189e-09 7.73091 5.47488 0.417314 -3.39412e-09 2.95798e-10 2.37191e-09 2.90554 0.965183 0.102902 -3.39411e-09 2.95798e-10 2.37191e-09 10.2786 0.731801 0.0259123 -3.39412e-09 2.95799e-10 2.37191e-09 2.22167 -0.733487 -0.20892 -2.13479e-14 -2.80858e-13 3.17225e-14 -67.6055 15.5721 0.412302 6.89284 -2.45666 -12.0903 0.0551489 -6.70024 0.945987 -6.30543e-10 -2.23887e-09 -6.1177e-09 -1.07208e-09 -3.8806e-09 -1.05777e-08 -6.30546e-10 -2.23887e-09 -6.11769e-09 -7.73091 5.47488 -0.417314 -6.30543e-10 -2.23887e-09 -6.1177e-09 -2.90554 0.965183 -0.102902 -6.30548e-10 -2.23887e-09 -6.1177e-09 -10.2786 0.731801 -0.0259123 -6.30538e-10 -2.23887e-09 -6.1177e-09 -2.22167 -0.733487 0.20892 -2.03217e-16 0.0 -3.88251e-19 -6.22371 -34.2169 -12.4 -0.271221 32.8793 0.305351 -0.130247 21.9298 -0.860492 2.03217e-16 0.0 3.88251e-19 6.55243 -34.6378 9.95256 0.0193855 23.522 -0.260644 2.0067 21.3709 -4.95801
0.593842 112.434 -5.46834 -0.2334 2.3829 11.0973 -2.98755 10.5406 -1.72707 3.30613 1.74576 -0.545856 -2.7131 3.96559 0.135925 2.33616 3.22831 0.760038 -0.0 0.0 0.0 -0.0 0.0 0.0 -1.90838e-14 -3.11695e-13 6.31141e-14 76.2148 16.8382 -1.61117 -13.3641 -6.45261 24.2831 -2.06139 37.1909 6.12173 -4.09244e-09 4.23367e-10 2.53923e-09 -6.98775e-09 6.83142e-10 4.50637e-09 -4.09243e-09 4.23369e-10 2.53921e-09 7.73091 5.47488 0.417314 -4.09244e-09 4.23367e-10 2.53923e-09 2.90554 0.965183 0.102902 -4.09243e-09 4.23367e-10 2.53923e-09 10.2786 0.731801 0.0259123 -4.09244e-09 4.23369e-10 2.53924e-09 2.22167 -0.733487 -0.20892 -1.92332e-14 -3.11695e-13 6.28657e-14 -67.4296 15.6338 0.674374 6.87253 -2.44704 -12.0535 0.060273 -6.98827 0.987086 -9.92721e-10 -2.66644e-09 -6.94305e-09 -1.69652e-09 -4.62117e-09 -1.20062e-08 -9.92725e-10 -2.66644e-09 -6.94304e-09 -7.73091 5.47488 -0.417314 -9.92721e-10 -2.66644e-09 -6.94305e-09 -2.90554 0.965183 -0.102902 -9.92727e-10 -2.66644e-09 -6.94305e-09 -10.2786 0.731801 -0.0259123 -9.92717e-10 -2.66644e-09 -6.94306e-09 -2.22167 -0.733487 0.20892 -2.03217e-16 0.0 -3.88251e-19 -6.08298 -34.2767 -11.8436 -0.239602 30.42 0.255226 -0.0400093 21.7556 -1.17958 2.03217e-16 0.0 3.88251e-19 6.62755 -35.1824 10.3609 0.0153821 22.7753 -0.256935 1.91999 21.1046 -4.76163
0.589516 111.935 -4.36669 -0.2357 2.4574 11.1672 -2.77605 10.6548 -1.75787 3.27415 1.67059 -0.54311 -2.7394 3.77397 0.121293 2.38715 3.54548 0.738287 -0.0 0.0 0.0 -0.0 0.0 0.0 -1.23829e-14 -2.25397e-13 6.21905e-14 76.2373 17.1452 -1.87727 -13.3771 -6.46259 24.3094 -2.04362 37.0581 6.09223 -3.21915e-09 3.75933e-10 1.73535e-09 -5.50385e-09 6.11959e-10 3.09317e-09 -3.21914e-09 3.75935e-10 1.73533e-09 7.73091 5.47488 0.417314 -3.21915e-09 3.75933e-10 1.73535e-09 2.90554 0.965183 0.102902 -3.21914e-09 3.75932e-10 1.73535e-09 10.2786 0.731801 0.0259123 -3.21915e-09 3.75935e-10 1.73536e-09 2.22167 -0.733487 -0.20892 -1.25212e-14 -2.25398e-13 6.19024e-14 -67.2359 15.6637 0.926675 6.82161 -2.42288 -11.9614 0.0626338 -7.1068 1.00404 -1.00798e-09 -2.06862e-09 -5.18196e-09 -1.72874e-09 -3.58459e-09 -8.96248e-09 -1.00798e-09 -2.06862e-09 -5.18195e-09 -7.73091 5.47488 -0.417314 -1.00798e-09 -2.06862e-09 -5.18196e-09 -2.90554 0.965183 -0.102902 -1.00798e-09 -2.06862e-09 -5.18196e-09 -10.2786 0.731801 -0.0259123 -1.00797e-09 -2.06862e-09 -5.18196e-09 -2.22167 -0.733487 0.20892 -2.03217e-16 0.0 -3.88251e-19 -5.93746 -34.38 -11.3992 -0.214297 28.1144 0.210366 0.0985891 21.3411 -1.69524 2.03217e-16 0.0 3.88251e-19 6.7519 -35.7516 10.7028 0.0134645 22.1381 -0.25549 1.83174 20.572 -4.61783
0.579118 111.365 -3.27837 -0.2771 2.5695 11.2265 -2.48575 10.764 -1.80232 3.2193 1.58804 -0.542835 -2.77032 3.61179 0.102103 2.46755 3.81977 0.707542 -0.0 0.0 0.0 -0.0 0.0 0.0 -2.5076e-15 -6.22196e-14 4.28164e-14 76.2732 17.4233 -2.14488 -13.3957 -6.47673 24.3468 -2.02445 36.9131 6.06021 -1.33318e-09 2.21587e-10 2.76711e-10 -2.29154e-09 3.67616e-10 5.19338e-10 -1.33317e-09 2.21589e-10 2.76695e-10 7.73091 5.47488 0.417314 -1.33318e-09 2.21589e-10 2.76714e-10 2.90554 0.965183 0.102902 -1.33317e-09 2.21587e-10 2.76714e-10 10.2786 0.731801 0.0259123 -1.33319e-09 2.21589e-10 2.76721e-10 2.22167 -0.733487 -0.20892 -2.59885e-15 -6.22205e-14 4.24747e-14 -67.0241 15.6452 1.17749 6.74443 -2.38628 -11.8222 0.0625504 -7.09881 1.0029 -8.12231e-10 -8.06064e-10 -1.70804e-09 -1.40119e-09 -1.39585e-09 -2.95716e-09 -8.1223e-10 -8.06064e-10 -1.70803e-09 -7.73091 5.47488 -0.417314 -8.12228e-10 -8.06061e-10 -1.70804e-09 -2.90554 0.965183 -0.102902 -8.12237e-10 -8.06062e-10 -1.70805e-09 -10.2786 0.731801 -0.0259123 -8.12226e-10 -8.0606e-10 -1.70805e-09 -2.22167 -0.733487 0.20892 -2.03217e-16 0.0 -3.88251e-19 -5.78594 -34.514 -11.014 -0.193396 25.9285 0.169734 0.260896 20.7228 -2.3501 2.03217e-16 0.0 3.88251e-19 6.9257 -36.3481 11.0211 0.0139379 21.6189 -0.256348 1.73875 19.8587 -4.49671
0.563338 110.724 -2.20412 -0.3498 2.6981 11.2734 -2.17184 10.8978 -1.84276 3.1532 1.50216 -0.541238 -2.79504 3.47369 0.0812947 2.55426 4.04165 0.672199 -0.0 0.0 0.0 -0.0 0.0 0.0 6.67741e-15 9.86723e-14 1.67814e-14 76.334 17.666 -2.41097 -13.4303 -6.50344 24.4155 -2.00043 36.7312 6.0201 6.22434e-10 5.03565e-11 -1.1545e-09 1.04151e-09 9.47387e-11 -2.00949e-09 6.22439e-10 5.03586e-11 -1.15452e-09 7.73091 5.47488 0.417314 6.22437e-10 5.03593e-11 -1.15449e-09 2.90554 0.965183 0.102902 6.22441e-10 5.03565e-11 -1.1545e-09 10.2786 0.731801 0.0259123 6.22426e-10 5.03581e-11 -1.15449e-09 2.22167 -0.733487 -0.20892 6.64083e-15 9.86709e-14 1.63955e-14 -66.8117 15.6223 1.42413 6.66782 -2.34998 -11.6843 0.0621024 -7.08011 1.00022 -5.25434e-10 4.82852e-10 1.77223e-09 -9.15847e-10 8.38299e-10 3.05972e-09 -5.2543e-10 4.82852e-10 1.77224e-09 -7.73091 5.47488 -0.417314 -5.25429e-10 4.82857e-10 1.77223e-09 -2.90554 0.965183 -0.102902 -5.2544e-10 4.82855e-10 1.77222e-09 -10.2786 0.731801 -0.0259123 -5.25428e-10 4.82856e-10 1.77222e-09 -2.22167 -0.733487 0.20892 -2.03217e-16 0.0 -3.88251e-19 -5.64889 -34.6823 -10.6701 -0.176342 23.9137 0.132617 0.433271 20.0844 -3.09402 2.03217e-16 0.0 3.88251e-19 7.12184 -36.9288 11.2952 0.0152902 21.1569 -0.25795 1.66151 19.1521 -4.42073
0.545521 110.011 -1.14223 -0.4379 2.8361 11.297 -1.88957 11.0859 -1.86152 3.08753 1.41695 -0.534532 -2.80272 3.3543 0.0618059 2.62408 4.20159 0.636665 -0.0 0.0 0.0 -0.0 0.0 0.0 1.13076e-14 1.78112e-13 -4.12478e-15 76.431 17.8669 -2.67243 -13.4912 -6.5511 24.5359 -1.96831 36.4874 5.9665 1.70467e-09 -4.77306e-11 -1.8761e-09 2.8876e-09 -6.20494e-11 -3.28771e-09 1.70468e-09 -4.77286e-11 -1.87611e-09 7.73091 5.47488 0.417314 1.70468e-09 -4.77275e-11 -1.87609e-09 2.90554 0.965183 0.102902 1.70468e-09 -4.77307e-11 -1.87609e-09 10.2786 0.731801 0.0259123 1.70467e-09 -4.77294e-11 -1.87608e-09 2.22167 -0.733487 -0.20892 1.13049e-14 1.7811e-13 -4.52235e-15 -66.6173 15.6392 1.66415 6.61887 -2.32678 -11.5964 0.063407 -7.1665 1.01252 -2.67542e-10 1.15975e-09 3.55239e-09 -4.74686e-10 2.0111e-09 6.13815e-09 -2.67538e-10 1.15975e-09 3.5524e-09 -7.73091 5.47488 -0.417314 -2.67537e-10 1.15975e-09 3.55239e-09 -2.90554 0.965183 -0.102902 -2.67548e-10 1.15975e-09 3.55239e-09 -10.2786 0.731801 -0.0259123 -2.67536e-10 1.15975e-09 3.55238e-09 -2.22167 -0.733487 0.20892 -2.03217e-16 0.0 -3.88251e-19 -5.54669 -34.8883 -10.3496 -0.162594 22.1214 0.0983683 0.613417 19.6099 -3.88062 2.03217e-16 0.0 3.88251e-19 7.31112 -37.451 11.5024 0.0160689 20.6911 -0.258767 1.61814 18.64 -4.41089
0.527274 109.225 -0.0877314 -0.5307 2.9662 11.2875 -1.63488 11.3473 -1.8646 3.02498 1.3291 -0.524233 -2.78499 3.24891 0.0447532 2.66483 4.27826 0.602372 -0.0 0.0 0.0 -0.0 0.0 0.0 8.78926e-15 1.24142e-13 -1.90228e-14 76.5689 18.0077 -2.92911 -13.5843 -6.62414 24.7208 -1.92574 36.1593 5.89492 1.40147e-09 -2.67944e-11 -1.45779e-09 2.375e-09 -2.94066e-11 -2.55763e-09 1.40147e-09 -2.6793e-11 -1.4578e-09 7.73091 5.47488 0.417314 1.40147e-09 -2.67927e-11 -1.45777e-09 2.90554 0.965183 0.102902 1.40148e-09 -2.67953e-11 -1.45778e-09 10.2786 0.731801 0.0259123 1.40146e-09 -2.67941e-11 -1.45776e-09 2.22167 -0.733487 -0.20892 8.78978e-15 1.2414e-13 -1.93768e-14 -66.4387 15.7383 1.8968 6.61166 -2.32333 -11.5835 0.0676085 -7.41076 1.04739 -1.76791e-11 8.31961e-10 2.57742e-09 -3.76654e-11 1.44134e-09 4.45495e-09 -1.76756e-11 8.3196e-10 2.57743e-09 -7.73091 5.47488 -0.417314 -1.76742e-11 8.31964e-10 2.57742e-09 -2.90554 0.965183 -0.102902 -1.76849e-11 8.31963e-10 2.57741e-09 -10.2786 0.731801 -0.0259123 -1.76725e-11 8.31965e-10 2.57741e-09 -2.22167 -0.733487 0.20892 -2.03217e-16 0.0 -3.88251e-19 -5.48442 -35.1498 -10.0467 -0.151095 20.556 0.0660217 0.822757 19.3179 -4.76284 2.03217e-16 0.0 3.88251e-19 7.48639 -37.9112 11.6282 0.0160255 20.198 -0.258751 1.62077 18.3201 -4.51771
